<svg xmlns="http://www.w3.org/2000/svg" viewBox="0 0 32 32" fill="none">
  <defs>
    <linearGradient id="bg" x1="0" y1="0" x2="32" y2="32">
      <stop offset="0%" stop-color="#0B1120"/>
      <stop offset="100%" stop-color="#1e293b"/>
    </linearGradient>
    <linearGradient id="accent" x1="8" y1="8" x2="24" y2="24">
      <stop offset="0%" stop-color="#06b6d4"/>
      <stop offset="100%" stop-color="#3381ff"/>
    </linearGradient>
    <linearGradient id="gold" x1="10" y1="10" x2="22" y2="22">
      <stop offset="0%" stop-color="#edc86a"/>
      <stop offset="100%" stop-color="#d4a853"/>
    </linearGradient>
  </defs>
  <rect width="32" height="32" rx="8" fill="url(#bg)"/>
  <circle cx="16" cy="13" r="6" stroke="url(#accent)" stroke-width="1.5" fill="none" opacity="0.9"/>
  <path d="M10.5 19.5c0-2 2.5-3.5 5.5-3.5s5.5 1.5 5.5 3.5v1.5c0 .8-.7 1.5-1.5 1.5h-8c-.8 0-1.5-.7-1.5-1.5v-1.5z" stroke="url(#accent)" stroke-width="1.2" fill="none" opacity="0.8"/>
  <circle cx="13.5" cy="12" r="0.8" fill="url(#accent)"/>
  <circle cx="18.5" cy="12" r="0.8" fill="url(#accent)"/>
  <circle cx="16" cy="3.5" r="1.5" fill="url(#gold)" opacity="0.9"/>
  <circle cx="26" cy="9" r="1" fill="url(#gold)" opacity="0.7"/>
  <circle cx="6" cy="9" r="1" fill="url(#gold)" opacity="0.7"/>
  <line x1="16" y1="5" x2="16" y2="7" stroke="url(#gold)" stroke-width="0.8" opacity="0.5"/>
  <line x1="26" y1="10" x2="22" y2="12" stroke="url(#gold)" stroke-width="0.6" opacity="0.4"/>
  <line x1="6" y1="10" x2="10" y2="12" stroke="url(#gold)" stroke-width="0.6" opacity="0.4"/>
</svg>
